<mxfile host="app.diagrams.net" modified="2023-11-23T18:51:05.917Z" agent="Mozilla/5.0 (Windows NT 10.0; Win64; x64) AppleWebKit/537.36 (KHTML, like Gecko) Chrome/119.0.0.0 Safari/537.36" etag="_mMTd3k8cbhNEhsQ6Ijd" version="22.1.3" type="device">
  <diagram name="Page-1" id="p17fd2wPg30h_L1JXsxZ">
    <mxGraphModel dx="3172" dy="675" grid="1" gridSize="10" guides="1" tooltips="1" connect="1" arrows="1" fold="1" page="1" pageScale="1" pageWidth="827" pageHeight="1169" math="0" shadow="0">
      <root>
        <mxCell id="0" />
        <mxCell id="1" parent="0" />
        <mxCell id="1S_j1b9gWQxDNAKIOJIM-2" value="Клиент" style="rounded=0;whiteSpace=wrap;html=1;" parent="1" vertex="1">
          <mxGeometry x="360" y="310" width="120" height="60" as="geometry" />
        </mxCell>
        <mxCell id="1S_j1b9gWQxDNAKIOJIM-79" style="edgeStyle=orthogonalEdgeStyle;shape=connector;rounded=0;orthogonalLoop=1;jettySize=auto;html=1;entryX=0;entryY=0.5;entryDx=0;entryDy=0;labelBackgroundColor=default;strokeColor=default;align=center;verticalAlign=middle;fontFamily=Helvetica;fontSize=11;fontColor=default;endArrow=classic;" parent="1" source="1S_j1b9gWQxDNAKIOJIM-7" target="1S_j1b9gWQxDNAKIOJIM-2" edge="1">
          <mxGeometry relative="1" as="geometry" />
        </mxCell>
        <mxCell id="1S_j1b9gWQxDNAKIOJIM-84" style="edgeStyle=orthogonalEdgeStyle;shape=connector;rounded=0;orthogonalLoop=1;jettySize=auto;html=1;entryX=1;entryY=0.25;entryDx=0;entryDy=0;labelBackgroundColor=default;strokeColor=default;align=center;verticalAlign=middle;fontFamily=Helvetica;fontSize=11;fontColor=default;endArrow=classic;" parent="1" source="1S_j1b9gWQxDNAKIOJIM-7" target="1S_j1b9gWQxDNAKIOJIM-63" edge="1">
          <mxGeometry relative="1" as="geometry" />
        </mxCell>
        <mxCell id="1S_j1b9gWQxDNAKIOJIM-7" value="заказывает" style="rhombus;whiteSpace=wrap;html=1;" parent="1" vertex="1">
          <mxGeometry x="100" y="310" width="120" height="60" as="geometry" />
        </mxCell>
        <mxCell id="1S_j1b9gWQxDNAKIOJIM-77" style="edgeStyle=orthogonalEdgeStyle;shape=connector;rounded=0;orthogonalLoop=1;jettySize=auto;html=1;entryX=1;entryY=0.5;entryDx=0;entryDy=0;labelBackgroundColor=default;strokeColor=default;align=center;verticalAlign=middle;fontFamily=Helvetica;fontSize=11;fontColor=default;endArrow=classic;" parent="1" source="1S_j1b9gWQxDNAKIOJIM-8" target="1S_j1b9gWQxDNAKIOJIM-37" edge="1">
          <mxGeometry relative="1" as="geometry" />
        </mxCell>
        <mxCell id="1S_j1b9gWQxDNAKIOJIM-85" style="edgeStyle=orthogonalEdgeStyle;shape=connector;rounded=0;orthogonalLoop=1;jettySize=auto;html=1;entryX=0;entryY=0.25;entryDx=0;entryDy=0;labelBackgroundColor=default;strokeColor=default;align=center;verticalAlign=middle;fontFamily=Helvetica;fontSize=11;fontColor=default;endArrow=classic;" parent="1" source="1S_j1b9gWQxDNAKIOJIM-8" target="1S_j1b9gWQxDNAKIOJIM-63" edge="1">
          <mxGeometry relative="1" as="geometry" />
        </mxCell>
        <mxCell id="1S_j1b9gWQxDNAKIOJIM-8" value="делает дизайн" style="rhombus;whiteSpace=wrap;html=1;" parent="1" vertex="1">
          <mxGeometry x="-610" y="311.25" width="120" height="57.5" as="geometry" />
        </mxCell>
        <mxCell id="1S_j1b9gWQxDNAKIOJIM-80" style="edgeStyle=orthogonalEdgeStyle;shape=connector;rounded=0;orthogonalLoop=1;jettySize=auto;html=1;exitX=1;exitY=0.5;exitDx=0;exitDy=0;entryX=0;entryY=0.5;entryDx=0;entryDy=0;labelBackgroundColor=default;strokeColor=default;align=center;verticalAlign=middle;fontFamily=Helvetica;fontSize=11;fontColor=default;endArrow=classic;" parent="1" source="1S_j1b9gWQxDNAKIOJIM-10" target="1S_j1b9gWQxDNAKIOJIM-27" edge="1">
          <mxGeometry relative="1" as="geometry" />
        </mxCell>
        <mxCell id="1S_j1b9gWQxDNAKIOJIM-83" style="edgeStyle=orthogonalEdgeStyle;shape=connector;rounded=0;orthogonalLoop=1;jettySize=auto;html=1;exitX=0;exitY=0.5;exitDx=0;exitDy=0;entryX=1;entryY=0.75;entryDx=0;entryDy=0;labelBackgroundColor=default;strokeColor=default;align=center;verticalAlign=middle;fontFamily=Helvetica;fontSize=11;fontColor=default;endArrow=classic;" parent="1" source="1S_j1b9gWQxDNAKIOJIM-10" target="1S_j1b9gWQxDNAKIOJIM-63" edge="1">
          <mxGeometry relative="1" as="geometry" />
        </mxCell>
        <mxCell id="1S_j1b9gWQxDNAKIOJIM-10" value="руководит" style="rhombus;whiteSpace=wrap;html=1;" parent="1" vertex="1">
          <mxGeometry x="100" y="412.5" width="120" height="55" as="geometry" />
        </mxCell>
        <mxCell id="1S_j1b9gWQxDNAKIOJIM-11" value="ФИО" style="rounded=0;whiteSpace=wrap;html=1;" parent="1" vertex="1">
          <mxGeometry x="230" y="210" width="120" height="60" as="geometry" />
        </mxCell>
        <mxCell id="1S_j1b9gWQxDNAKIOJIM-13" value="Email" style="rounded=0;whiteSpace=wrap;html=1;" parent="1" vertex="1">
          <mxGeometry x="100" y="210" width="120" height="60" as="geometry" />
        </mxCell>
        <mxCell id="1S_j1b9gWQxDNAKIOJIM-14" value="Телефон" style="rounded=0;whiteSpace=wrap;html=1;" parent="1" vertex="1">
          <mxGeometry x="-30" y="210" width="120" height="60" as="geometry" />
        </mxCell>
        <mxCell id="1S_j1b9gWQxDNAKIOJIM-15" value="ID Клиента" style="rounded=0;whiteSpace=wrap;html=1;" parent="1" vertex="1">
          <mxGeometry x="360" y="210" width="120" height="60" as="geometry" />
        </mxCell>
        <mxCell id="1S_j1b9gWQxDNAKIOJIM-21" value="" style="endArrow=none;html=1;rounded=0;labelBackgroundColor=default;strokeColor=default;align=center;verticalAlign=middle;fontFamily=Helvetica;fontSize=11;fontColor=default;shape=connector;entryX=0.5;entryY=1;entryDx=0;entryDy=0;exitX=0.5;exitY=0;exitDx=0;exitDy=0;" parent="1" source="1S_j1b9gWQxDNAKIOJIM-2" target="1S_j1b9gWQxDNAKIOJIM-15" edge="1">
          <mxGeometry width="50" height="50" relative="1" as="geometry">
            <mxPoint x="336" y="320" as="sourcePoint" />
            <mxPoint x="386" y="270" as="targetPoint" />
          </mxGeometry>
        </mxCell>
        <mxCell id="1S_j1b9gWQxDNAKIOJIM-22" value="" style="endArrow=none;html=1;rounded=0;labelBackgroundColor=default;strokeColor=default;align=center;verticalAlign=middle;fontFamily=Helvetica;fontSize=11;fontColor=default;shape=connector;entryX=0.5;entryY=1;entryDx=0;entryDy=0;" parent="1" target="1S_j1b9gWQxDNAKIOJIM-11" edge="1">
          <mxGeometry width="50" height="50" relative="1" as="geometry">
            <mxPoint x="290" y="290" as="sourcePoint" />
            <mxPoint x="300" y="270" as="targetPoint" />
          </mxGeometry>
        </mxCell>
        <mxCell id="1S_j1b9gWQxDNAKIOJIM-23" value="" style="endArrow=none;html=1;rounded=0;labelBackgroundColor=default;strokeColor=default;align=center;verticalAlign=middle;fontFamily=Helvetica;fontSize=11;fontColor=default;shape=connector;entryX=0.5;entryY=1;entryDx=0;entryDy=0;" parent="1" target="1S_j1b9gWQxDNAKIOJIM-13" edge="1">
          <mxGeometry width="50" height="50" relative="1" as="geometry">
            <mxPoint x="160" y="290" as="sourcePoint" />
            <mxPoint x="310" y="300" as="targetPoint" />
          </mxGeometry>
        </mxCell>
        <mxCell id="1S_j1b9gWQxDNAKIOJIM-24" value="" style="endArrow=none;html=1;rounded=0;labelBackgroundColor=default;strokeColor=default;align=center;verticalAlign=middle;fontFamily=Helvetica;fontSize=11;fontColor=default;shape=connector;entryX=0.5;entryY=1;entryDx=0;entryDy=0;" parent="1" target="1S_j1b9gWQxDNAKIOJIM-14" edge="1">
          <mxGeometry width="50" height="50" relative="1" as="geometry">
            <mxPoint x="30" y="290" as="sourcePoint" />
            <mxPoint x="300" y="280" as="targetPoint" />
          </mxGeometry>
        </mxCell>
        <mxCell id="1S_j1b9gWQxDNAKIOJIM-25" value="" style="endArrow=none;html=1;rounded=0;labelBackgroundColor=default;strokeColor=default;align=center;verticalAlign=middle;fontFamily=Helvetica;fontSize=11;fontColor=default;shape=connector;" parent="1" edge="1">
          <mxGeometry width="50" height="50" relative="1" as="geometry">
            <mxPoint x="30" y="290" as="sourcePoint" />
            <mxPoint x="420" y="290" as="targetPoint" />
          </mxGeometry>
        </mxCell>
        <mxCell id="1S_j1b9gWQxDNAKIOJIM-27" value="Рекламный&lt;br style=&quot;border-color: var(--border-color);&quot;&gt;директор" style="rounded=0;whiteSpace=wrap;html=1;" parent="1" vertex="1">
          <mxGeometry x="360" y="410" width="120" height="60" as="geometry" />
        </mxCell>
        <mxCell id="1S_j1b9gWQxDNAKIOJIM-28" value="ФИО" style="rounded=0;whiteSpace=wrap;html=1;" parent="1" vertex="1">
          <mxGeometry x="230" y="505" width="120" height="60" as="geometry" />
        </mxCell>
        <mxCell id="1S_j1b9gWQxDNAKIOJIM-29" value="Email" style="rounded=0;whiteSpace=wrap;html=1;" parent="1" vertex="1">
          <mxGeometry x="100" y="505" width="120" height="60" as="geometry" />
        </mxCell>
        <mxCell id="1S_j1b9gWQxDNAKIOJIM-30" value="Телефон" style="rounded=0;whiteSpace=wrap;html=1;" parent="1" vertex="1">
          <mxGeometry x="-30" y="505" width="120" height="60" as="geometry" />
        </mxCell>
        <mxCell id="1S_j1b9gWQxDNAKIOJIM-31" value="ID директора" style="rounded=0;whiteSpace=wrap;html=1;" parent="1" vertex="1">
          <mxGeometry x="360" y="505" width="120" height="60" as="geometry" />
        </mxCell>
        <mxCell id="1S_j1b9gWQxDNAKIOJIM-32" value="" style="endArrow=none;html=1;rounded=0;labelBackgroundColor=default;strokeColor=default;align=center;verticalAlign=middle;fontFamily=Helvetica;fontSize=11;fontColor=default;shape=connector;entryX=0.5;entryY=0;entryDx=0;entryDy=0;exitX=0.5;exitY=1;exitDx=0;exitDy=0;" parent="1" source="1S_j1b9gWQxDNAKIOJIM-27" target="1S_j1b9gWQxDNAKIOJIM-31" edge="1">
          <mxGeometry width="50" height="50" relative="1" as="geometry">
            <mxPoint x="420" y="480" as="sourcePoint" />
            <mxPoint x="386" y="565" as="targetPoint" />
          </mxGeometry>
        </mxCell>
        <mxCell id="1S_j1b9gWQxDNAKIOJIM-33" value="" style="endArrow=none;html=1;rounded=0;labelBackgroundColor=default;strokeColor=default;align=center;verticalAlign=middle;fontFamily=Helvetica;fontSize=11;fontColor=default;shape=connector;exitX=0.5;exitY=0;exitDx=0;exitDy=0;" parent="1" source="1S_j1b9gWQxDNAKIOJIM-28" edge="1">
          <mxGeometry width="50" height="50" relative="1" as="geometry">
            <mxPoint x="290" y="585" as="sourcePoint" />
            <mxPoint x="290" y="490" as="targetPoint" />
          </mxGeometry>
        </mxCell>
        <mxCell id="1S_j1b9gWQxDNAKIOJIM-34" value="" style="endArrow=none;html=1;rounded=0;labelBackgroundColor=default;strokeColor=default;align=center;verticalAlign=middle;fontFamily=Helvetica;fontSize=11;fontColor=default;shape=connector;entryX=0.5;entryY=0;entryDx=0;entryDy=0;" parent="1" target="1S_j1b9gWQxDNAKIOJIM-29" edge="1">
          <mxGeometry width="50" height="50" relative="1" as="geometry">
            <mxPoint x="160" y="490" as="sourcePoint" />
            <mxPoint x="310" y="595" as="targetPoint" />
          </mxGeometry>
        </mxCell>
        <mxCell id="1S_j1b9gWQxDNAKIOJIM-35" value="" style="endArrow=none;html=1;rounded=0;labelBackgroundColor=default;strokeColor=default;align=center;verticalAlign=middle;fontFamily=Helvetica;fontSize=11;fontColor=default;shape=connector;exitX=0.5;exitY=0;exitDx=0;exitDy=0;" parent="1" source="1S_j1b9gWQxDNAKIOJIM-30" edge="1">
          <mxGeometry width="50" height="50" relative="1" as="geometry">
            <mxPoint x="30" y="585" as="sourcePoint" />
            <mxPoint x="30" y="490" as="targetPoint" />
          </mxGeometry>
        </mxCell>
        <mxCell id="1S_j1b9gWQxDNAKIOJIM-36" value="" style="endArrow=none;html=1;rounded=0;labelBackgroundColor=default;strokeColor=default;align=center;verticalAlign=middle;fontFamily=Helvetica;fontSize=11;fontColor=default;shape=connector;" parent="1" edge="1">
          <mxGeometry width="50" height="50" relative="1" as="geometry">
            <mxPoint x="30" y="490" as="sourcePoint" />
            <mxPoint x="420" y="490" as="targetPoint" />
          </mxGeometry>
        </mxCell>
        <mxCell id="1S_j1b9gWQxDNAKIOJIM-37" value="Дизайнер" style="rounded=0;whiteSpace=wrap;html=1;" parent="1" vertex="1">
          <mxGeometry x="-870" y="310" width="120" height="60" as="geometry" />
        </mxCell>
        <mxCell id="1S_j1b9gWQxDNAKIOJIM-78" style="edgeStyle=orthogonalEdgeStyle;shape=connector;rounded=0;orthogonalLoop=1;jettySize=auto;html=1;entryX=1;entryY=0.5;entryDx=0;entryDy=0;labelBackgroundColor=default;strokeColor=default;align=center;verticalAlign=middle;fontFamily=Helvetica;fontSize=11;fontColor=default;endArrow=classic;" parent="1" source="1S_j1b9gWQxDNAKIOJIM-39" target="1S_j1b9gWQxDNAKIOJIM-49" edge="1">
          <mxGeometry relative="1" as="geometry" />
        </mxCell>
        <mxCell id="1S_j1b9gWQxDNAKIOJIM-86" style="edgeStyle=orthogonalEdgeStyle;shape=connector;rounded=0;orthogonalLoop=1;jettySize=auto;html=1;entryX=0;entryY=0.75;entryDx=0;entryDy=0;labelBackgroundColor=default;strokeColor=default;align=center;verticalAlign=middle;fontFamily=Helvetica;fontSize=11;fontColor=default;endArrow=classic;" parent="1" source="1S_j1b9gWQxDNAKIOJIM-39" target="1S_j1b9gWQxDNAKIOJIM-63" edge="1">
          <mxGeometry relative="1" as="geometry" />
        </mxCell>
        <mxCell id="1S_j1b9gWQxDNAKIOJIM-39" value="планирует" style="rhombus;whiteSpace=wrap;html=1;" parent="1" vertex="1">
          <mxGeometry x="-610" y="407.5" width="120" height="55" as="geometry" />
        </mxCell>
        <mxCell id="1S_j1b9gWQxDNAKIOJIM-40" value="ФИО" style="rounded=0;whiteSpace=wrap;html=1;" parent="1" vertex="1">
          <mxGeometry x="-480" y="210" width="120" height="60" as="geometry" />
        </mxCell>
        <mxCell id="1S_j1b9gWQxDNAKIOJIM-41" value="Email" style="rounded=0;whiteSpace=wrap;html=1;" parent="1" vertex="1">
          <mxGeometry x="-610" y="210" width="120" height="60" as="geometry" />
        </mxCell>
        <mxCell id="1S_j1b9gWQxDNAKIOJIM-42" value="Телефон" style="rounded=0;whiteSpace=wrap;html=1;" parent="1" vertex="1">
          <mxGeometry x="-740" y="210" width="120" height="60" as="geometry" />
        </mxCell>
        <mxCell id="1S_j1b9gWQxDNAKIOJIM-43" value="ID Клиента" style="rounded=0;whiteSpace=wrap;html=1;" parent="1" vertex="1">
          <mxGeometry x="-870" y="210" width="120" height="60" as="geometry" />
        </mxCell>
        <mxCell id="1S_j1b9gWQxDNAKIOJIM-44" value="" style="endArrow=none;html=1;rounded=0;labelBackgroundColor=default;strokeColor=default;align=center;verticalAlign=middle;fontFamily=Helvetica;fontSize=11;fontColor=default;shape=connector;entryX=0.5;entryY=1;entryDx=0;entryDy=0;exitX=0.5;exitY=0;exitDx=0;exitDy=0;" parent="1" source="1S_j1b9gWQxDNAKIOJIM-37" target="1S_j1b9gWQxDNAKIOJIM-43" edge="1">
          <mxGeometry width="50" height="50" relative="1" as="geometry">
            <mxPoint x="-574" y="500" as="sourcePoint" />
            <mxPoint x="-524" y="450" as="targetPoint" />
          </mxGeometry>
        </mxCell>
        <mxCell id="1S_j1b9gWQxDNAKIOJIM-45" value="" style="endArrow=none;html=1;rounded=0;labelBackgroundColor=default;strokeColor=default;align=center;verticalAlign=middle;fontFamily=Helvetica;fontSize=11;fontColor=default;shape=connector;entryX=0.5;entryY=1;entryDx=0;entryDy=0;" parent="1" target="1S_j1b9gWQxDNAKIOJIM-40" edge="1">
          <mxGeometry width="50" height="50" relative="1" as="geometry">
            <mxPoint x="-420" y="290" as="sourcePoint" />
            <mxPoint x="-610" y="450" as="targetPoint" />
          </mxGeometry>
        </mxCell>
        <mxCell id="1S_j1b9gWQxDNAKIOJIM-46" value="" style="endArrow=none;html=1;rounded=0;labelBackgroundColor=default;strokeColor=default;align=center;verticalAlign=middle;fontFamily=Helvetica;fontSize=11;fontColor=default;shape=connector;entryX=0.5;entryY=1;entryDx=0;entryDy=0;" parent="1" target="1S_j1b9gWQxDNAKIOJIM-41" edge="1">
          <mxGeometry width="50" height="50" relative="1" as="geometry">
            <mxPoint x="-550" y="290" as="sourcePoint" />
            <mxPoint x="-600" y="480" as="targetPoint" />
          </mxGeometry>
        </mxCell>
        <mxCell id="1S_j1b9gWQxDNAKIOJIM-47" value="" style="endArrow=none;html=1;rounded=0;labelBackgroundColor=default;strokeColor=default;align=center;verticalAlign=middle;fontFamily=Helvetica;fontSize=11;fontColor=default;shape=connector;entryX=0.5;entryY=1;entryDx=0;entryDy=0;" parent="1" target="1S_j1b9gWQxDNAKIOJIM-42" edge="1">
          <mxGeometry width="50" height="50" relative="1" as="geometry">
            <mxPoint x="-680" y="290" as="sourcePoint" />
            <mxPoint x="-610" y="460" as="targetPoint" />
          </mxGeometry>
        </mxCell>
        <mxCell id="1S_j1b9gWQxDNAKIOJIM-48" value="" style="endArrow=none;html=1;rounded=0;labelBackgroundColor=default;strokeColor=default;align=center;verticalAlign=middle;fontFamily=Helvetica;fontSize=11;fontColor=default;shape=connector;" parent="1" edge="1">
          <mxGeometry width="50" height="50" relative="1" as="geometry">
            <mxPoint x="-810" y="290" as="sourcePoint" />
            <mxPoint x="-420" y="290" as="targetPoint" />
          </mxGeometry>
        </mxCell>
        <mxCell id="1S_j1b9gWQxDNAKIOJIM-49" value="Медиа&lt;br style=&quot;border-color: var(--border-color);&quot;&gt;планировщик" style="rounded=0;whiteSpace=wrap;html=1;" parent="1" vertex="1">
          <mxGeometry x="-870" y="405" width="120" height="60" as="geometry" />
        </mxCell>
        <mxCell id="1S_j1b9gWQxDNAKIOJIM-50" value="ФИО" style="rounded=0;whiteSpace=wrap;html=1;" parent="1" vertex="1">
          <mxGeometry x="-610" y="505" width="120" height="60" as="geometry" />
        </mxCell>
        <mxCell id="1S_j1b9gWQxDNAKIOJIM-51" value="Email" style="rounded=0;whiteSpace=wrap;html=1;" parent="1" vertex="1">
          <mxGeometry x="-740" y="505" width="120" height="60" as="geometry" />
        </mxCell>
        <mxCell id="1S_j1b9gWQxDNAKIOJIM-52" value="Телефон" style="rounded=0;whiteSpace=wrap;html=1;" parent="1" vertex="1">
          <mxGeometry x="-480" y="505" width="120" height="60" as="geometry" />
        </mxCell>
        <mxCell id="1S_j1b9gWQxDNAKIOJIM-53" value="ID Клиента" style="rounded=0;whiteSpace=wrap;html=1;" parent="1" vertex="1">
          <mxGeometry x="-870" y="505" width="120" height="60" as="geometry" />
        </mxCell>
        <mxCell id="1S_j1b9gWQxDNAKIOJIM-54" value="" style="endArrow=none;html=1;rounded=0;labelBackgroundColor=default;strokeColor=default;align=center;verticalAlign=middle;fontFamily=Helvetica;fontSize=11;fontColor=default;shape=connector;entryX=0.5;entryY=0;entryDx=0;entryDy=0;exitX=0.5;exitY=1;exitDx=0;exitDy=0;" parent="1" source="1S_j1b9gWQxDNAKIOJIM-49" target="1S_j1b9gWQxDNAKIOJIM-53" edge="1">
          <mxGeometry width="50" height="50" relative="1" as="geometry">
            <mxPoint x="-420" y="485" as="sourcePoint" />
            <mxPoint x="-454" y="570" as="targetPoint" />
          </mxGeometry>
        </mxCell>
        <mxCell id="1S_j1b9gWQxDNAKIOJIM-57" value="" style="endArrow=none;html=1;rounded=0;labelBackgroundColor=default;strokeColor=default;align=center;verticalAlign=middle;fontFamily=Helvetica;fontSize=11;fontColor=default;shape=connector;exitX=0.5;exitY=0;exitDx=0;exitDy=0;" parent="1" source="1S_j1b9gWQxDNAKIOJIM-52" edge="1">
          <mxGeometry width="50" height="50" relative="1" as="geometry">
            <mxPoint x="-710" y="780" as="sourcePoint" />
            <mxPoint x="-420" y="485" as="targetPoint" />
          </mxGeometry>
        </mxCell>
        <mxCell id="1S_j1b9gWQxDNAKIOJIM-58" value="" style="endArrow=none;html=1;rounded=0;labelBackgroundColor=default;strokeColor=default;align=center;verticalAlign=middle;fontFamily=Helvetica;fontSize=11;fontColor=default;shape=connector;" parent="1" edge="1">
          <mxGeometry width="50" height="50" relative="1" as="geometry">
            <mxPoint x="-810" y="485" as="sourcePoint" />
            <mxPoint x="-420" y="485" as="targetPoint" />
          </mxGeometry>
        </mxCell>
        <mxCell id="1S_j1b9gWQxDNAKIOJIM-63" value="Рекламная&lt;br&gt;компания&lt;br&gt;" style="rounded=0;whiteSpace=wrap;html=1;" parent="1" vertex="1">
          <mxGeometry x="-260" y="360" width="120" height="60" as="geometry" />
        </mxCell>
        <mxCell id="1S_j1b9gWQxDNAKIOJIM-64" value="Название" style="rounded=0;whiteSpace=wrap;html=1;fontFamily=Helvetica;fontSize=11;fontColor=default;" parent="1" vertex="1">
          <mxGeometry x="-320" y="210" width="120" height="60" as="geometry" />
        </mxCell>
        <mxCell id="1S_j1b9gWQxDNAKIOJIM-65" value="Дата начала" style="rounded=0;whiteSpace=wrap;html=1;fontFamily=Helvetica;fontSize=11;fontColor=default;" parent="1" vertex="1">
          <mxGeometry x="-190" y="210" width="120" height="60" as="geometry" />
        </mxCell>
        <mxCell id="1S_j1b9gWQxDNAKIOJIM-66" value="Дата окончания" style="rounded=0;whiteSpace=wrap;html=1;fontFamily=Helvetica;fontSize=11;fontColor=default;" parent="1" vertex="1">
          <mxGeometry x="-320" y="505" width="120" height="60" as="geometry" />
        </mxCell>
        <mxCell id="1S_j1b9gWQxDNAKIOJIM-67" value="Стоимость" style="rounded=0;whiteSpace=wrap;html=1;fontFamily=Helvetica;fontSize=11;fontColor=default;" parent="1" vertex="1">
          <mxGeometry x="-190" y="505" width="120" height="60" as="geometry" />
        </mxCell>
        <mxCell id="1S_j1b9gWQxDNAKIOJIM-68" value="" style="endArrow=none;html=1;rounded=0;labelBackgroundColor=default;strokeColor=default;align=center;verticalAlign=middle;fontFamily=Helvetica;fontSize=11;fontColor=default;shape=connector;entryX=0.5;entryY=1;entryDx=0;entryDy=0;exitX=0.5;exitY=0;exitDx=0;exitDy=0;" parent="1" source="1S_j1b9gWQxDNAKIOJIM-63" target="1S_j1b9gWQxDNAKIOJIM-64" edge="1">
          <mxGeometry width="50" height="50" relative="1" as="geometry">
            <mxPoint x="-660" y="320" as="sourcePoint" />
            <mxPoint x="-270" y="320" as="targetPoint" />
            <Array as="points">
              <mxPoint x="-200" y="320" />
              <mxPoint x="-260" y="320" />
            </Array>
          </mxGeometry>
        </mxCell>
        <mxCell id="1S_j1b9gWQxDNAKIOJIM-69" value="" style="endArrow=none;html=1;rounded=0;labelBackgroundColor=default;strokeColor=default;align=center;verticalAlign=middle;fontFamily=Helvetica;fontSize=11;fontColor=default;shape=connector;entryX=0.5;entryY=1;entryDx=0;entryDy=0;" parent="1" target="1S_j1b9gWQxDNAKIOJIM-65" edge="1">
          <mxGeometry width="50" height="50" relative="1" as="geometry">
            <mxPoint x="-190" y="360" as="sourcePoint" />
            <mxPoint x="-140" y="311.32" as="targetPoint" />
            <Array as="points">
              <mxPoint x="-190" y="320" />
              <mxPoint x="-130" y="320" />
            </Array>
          </mxGeometry>
        </mxCell>
        <mxCell id="1S_j1b9gWQxDNAKIOJIM-71" value="" style="endArrow=none;html=1;rounded=0;labelBackgroundColor=default;strokeColor=default;align=center;verticalAlign=middle;fontFamily=Helvetica;fontSize=11;fontColor=default;shape=connector;exitX=0.5;exitY=0;exitDx=0;exitDy=0;" parent="1" source="1S_j1b9gWQxDNAKIOJIM-67" edge="1">
          <mxGeometry width="50" height="50" relative="1" as="geometry">
            <mxPoint x="-130" y="500" as="sourcePoint" />
            <mxPoint x="-190" y="420" as="targetPoint" />
            <Array as="points">
              <mxPoint x="-130" y="460" />
              <mxPoint x="-190" y="460" />
            </Array>
          </mxGeometry>
        </mxCell>
        <mxCell id="1S_j1b9gWQxDNAKIOJIM-72" value="" style="endArrow=none;html=1;rounded=0;labelBackgroundColor=default;strokeColor=default;align=center;verticalAlign=middle;fontFamily=Helvetica;fontSize=11;fontColor=default;shape=connector;exitX=0.5;exitY=0;exitDx=0;exitDy=0;entryX=0.5;entryY=1;entryDx=0;entryDy=0;" parent="1" source="1S_j1b9gWQxDNAKIOJIM-66" target="1S_j1b9gWQxDNAKIOJIM-63" edge="1">
          <mxGeometry width="50" height="50" relative="1" as="geometry">
            <mxPoint x="-260" y="500" as="sourcePoint" />
            <mxPoint x="-210" y="420" as="targetPoint" />
            <Array as="points">
              <mxPoint x="-260" y="460" />
              <mxPoint x="-200" y="460" />
            </Array>
          </mxGeometry>
        </mxCell>
        <mxCell id="1S_j1b9gWQxDNAKIOJIM-73" value="" style="endArrow=none;html=1;rounded=0;labelBackgroundColor=default;strokeColor=default;align=center;verticalAlign=middle;fontFamily=Helvetica;fontSize=11;fontColor=default;shape=connector;entryX=0.5;entryY=1;entryDx=0;entryDy=0;" parent="1" edge="1">
          <mxGeometry width="50" height="50" relative="1" as="geometry">
            <mxPoint x="-550.17" y="505" as="sourcePoint" />
            <mxPoint x="-550.17" y="485" as="targetPoint" />
          </mxGeometry>
        </mxCell>
        <mxCell id="1S_j1b9gWQxDNAKIOJIM-74" value="" style="endArrow=none;html=1;rounded=0;labelBackgroundColor=default;strokeColor=default;align=center;verticalAlign=middle;fontFamily=Helvetica;fontSize=11;fontColor=default;shape=connector;entryX=0.5;entryY=1;entryDx=0;entryDy=0;" parent="1" edge="1">
          <mxGeometry width="50" height="50" relative="1" as="geometry">
            <mxPoint x="-680.17" y="505" as="sourcePoint" />
            <mxPoint x="-680.17" y="485" as="targetPoint" />
          </mxGeometry>
        </mxCell>
        <mxCell id="1S_j1b9gWQxDNAKIOJIM-90" style="edgeStyle=orthogonalEdgeStyle;shape=connector;rounded=0;orthogonalLoop=1;jettySize=auto;html=1;labelBackgroundColor=default;strokeColor=default;align=center;verticalAlign=middle;fontFamily=Helvetica;fontSize=11;fontColor=default;endArrow=classic;" parent="1" edge="1">
          <mxGeometry relative="1" as="geometry">
            <mxPoint x="-370" y="375" as="sourcePoint" />
            <mxPoint x="-270" y="375" as="targetPoint" />
          </mxGeometry>
        </mxCell>
        <mxCell id="1S_j1b9gWQxDNAKIOJIM-92" style="edgeStyle=orthogonalEdgeStyle;shape=connector;rounded=0;orthogonalLoop=1;jettySize=auto;html=1;labelBackgroundColor=default;strokeColor=default;align=center;verticalAlign=middle;fontFamily=Helvetica;fontSize=11;fontColor=default;endArrow=classic;" parent="1" edge="1">
          <mxGeometry relative="1" as="geometry">
            <mxPoint x="-370" y="405" as="sourcePoint" />
            <mxPoint x="-270" y="405" as="targetPoint" />
            <Array as="points">
              <mxPoint x="-290" y="405" />
              <mxPoint x="-290" y="405" />
            </Array>
          </mxGeometry>
        </mxCell>
        <mxCell id="1S_j1b9gWQxDNAKIOJIM-96" style="edgeStyle=orthogonalEdgeStyle;shape=connector;rounded=0;orthogonalLoop=1;jettySize=auto;html=1;labelBackgroundColor=default;strokeColor=default;align=center;verticalAlign=middle;fontFamily=Helvetica;fontSize=11;fontColor=default;endArrow=classic;" parent="1" edge="1">
          <mxGeometry relative="1" as="geometry">
            <mxPoint x="-120" y="405" as="sourcePoint" />
            <mxPoint x="-130" y="405" as="targetPoint" />
            <Array as="points">
              <mxPoint x="-70" y="404.5" />
              <mxPoint x="-70" y="404.5" />
            </Array>
          </mxGeometry>
        </mxCell>
        <mxCell id="1S_j1b9gWQxDNAKIOJIM-99" style="edgeStyle=orthogonalEdgeStyle;shape=connector;rounded=0;orthogonalLoop=1;jettySize=auto;html=1;labelBackgroundColor=default;strokeColor=default;align=center;verticalAlign=middle;fontFamily=Helvetica;fontSize=11;fontColor=default;endArrow=classic;" parent="1" edge="1">
          <mxGeometry relative="1" as="geometry">
            <mxPoint x="-30" y="375" as="sourcePoint" />
            <mxPoint x="-130" y="375" as="targetPoint" />
          </mxGeometry>
        </mxCell>
      </root>
    </mxGraphModel>
  </diagram>
</mxfile>
